PathFileType	4	(X/Y/Z)	22_2_61_p1_0-154.trc
DataRate	CameraRate	NumFrames	NumMarkers	Units	OrigDataRate	OrigDataStartFrame	OrigNumFrames
60.0	60.0	6	27	m	60.0	77	155
Frame#	Time	RHip			RKnee			RAnkle			RBigToe			RSmallToe			RHeel			LHip			LKnee			LAnkle			LBigToe			LSmallToe			LHeel			Neck			Head			Nose			RShoulder			RElbow			RWrist			RThumb			RIndex			RPinky			LShoulder			LElbow			LWrist			LThumb			LIndex			LPinky			
		X1	Y1	Z1	X2	Y2	Z2	X3	Y3	Z3	X4	Y4	Z4	X5	Y5	Z5	X6	Y6	Z6	X7	Y7	Z7	X8	Y8	Z8	X9	Y9	Z9	X10	Y10	Z10	X11	Y11	Z11	X12	Y12	Z12	X13	Y13	Z13	X14	Y14	Z14	X15	Y15	Z15	X16	Y16	Z16	X17	Y17	Z17	X18	Y18	Z18	X19	Y19	Z19	X20	Y20	Z20	X21	Y21	Z21	X22	Y22	Z22	X23	Y23	Z23	X24	Y24	Z24	X25	Y25	Z25	X26	Y26	Z26	X27	Y27	Z27	
77	1.2833333333333334	0.2567348327107306	0.6249559640333379	1.0344978766612762	0.274611792745653	0.7633527017482999	1.4310365279607784	0.29263745795064966	0.9605137492011008	1.8300080505336667	0.2668240816064402	0.750157209952771	1.888303582041905	0.326377328073814	0.7977489785111328	1.8906612251714372	0.28980748814212937	1.0086489200452564	1.8692736720477774	0.03795761253896431	0.6718467904114038	1.0467399853159483	0.07749070430976847	0.7927551247122938	1.421701163343944	0.09254599616027157	0.903588876450551	1.8202609986640519	0.11071899673254626	0.7613281093751127	1.892142082402282	0.05217380524554739	0.7744988974795807	1.8840853410876206	0.11596128543447073	0.9790603087117621	1.8753090755210169	0.08469961043455417	0.4719524527543474	0.48637268612764234	0.056187466712222564	0.30915913699413666	0.2603327749674678	0.06928379963771333	0.3246234173351974	0.40551707883208754	0.25909447589830714	0.4704994571871524	0.5463271098751824	0.35732428989842024	0.5858152805553376	0.7974662194610355	0.35144507726108865	0.5353199934515291	1.0571410730245483	0.3036680805302513	0.5419574518062018	1.1712121101730997	0.3212962673611903	0.4959793600987876	1.1773626489944788	0.3551005216221199	0.5427966500928387	1.1879608583331276	-0.05323553768722418	0.48689489102685835	0.564101341132603	-0.06289201931697562	0.5557275073584823	0.8176074376898642	-0.012604144656088216	0.44554213071026766	1.0211140502538725	0.05188117068422433	0.3710658677073973	1.0876145431112318	0.04352077059756821	0.3627981376831078	1.1227441697183902	-0.0032203728863185823	0.32948611951480405	1.1240241565662856
78	1.3	0.25639069760247146	0.6244969084467564	1.034394224912337	0.2745381494851696	0.7634627224878668	1.4311823388642761	0.29266629094181595	0.9605923518963829	1.8301068984241844	0.26142116786157626	0.736606950981607	1.8834397745024112	0.3266088340804921	0.7980818955168842	1.8907083121514359	0.2890908826058056	1.0101215382178257	1.874419022711201	0.037278157938910865	0.6731179409592078	1.0504269759558795	0.07748925734225993	0.7925401789022848	1.421775274083824	0.0925616595967967	0.9036630344471612	1.820320191656784	0.10934273192417102	0.7582230707652448	1.8867729168846015	0.05219147621066523	0.773913214656379	1.8837415012493868	0.11631234484111366	0.9798258319439256	1.8756405713801263	0.08477571020328994	0.4722273476346324	0.48651657574180385	0.056283042163622794	0.3094548830875593	0.2604653918852188	0.0692248033453775	0.3247924693864714	0.40567362645538546	0.25896671424527784	0.46963305124963045	0.5429566938378607	0.35730988231513183	0.5858603857023502	0.7973578514857136	0.35185846203166893	0.5344852587737926	1.0535721756476526	0.3035662778442247	0.5426836692069492	1.1714428796719962	0.32691137140685966	0.5077907371348237	1.1791082437645646	0.3564306960441976	0.5293157875985428	1.1859720785952248	-0.053679584618883926	0.48756874774438086	0.5673112227442257	-0.06008461271905176	0.5417001331944774	0.8097375162104251	-0.00642825783443082	0.43243794167745037	1.0112416547130054	0.05794683697780988	0.3566851345443564	1.0742451112686169	0.04955196140378354	0.35135353435682887	1.1061104291672277	0.010872310925963087	0.31757559134879465	1.1119235062123636
79	1.3166666666666667	0.2566175774729245	0.624052205548514	1.034019881266825	0.2731092869158366	0.7785356261131093	1.4303246700793162	0.29417272222238505	0.9634631032571216	1.8353255264222483	0.26130002364209814	0.7363761069306572	1.8834865427785334	0.32646040791069086	0.7978789305429069	1.8907122808217651	0.28882985303319714	1.009950894504856	1.8744274210561547	0.03786374904314427	0.6717426740719455	1.0468531888290578	0.07741945859736062	0.7926271522378849	1.4217384064771303	0.09169679633899179	0.9053871026977556	1.8256767501973998	0.10938998356936255	0.7579828841273887	1.8868637462991344	0.05213552154006744	0.7742229271153851	1.884069848043607	0.11745064288413044	0.9824388307753938	1.8802838111816234	0.0847126950134332	0.472343941557789	0.4865956333829807	0.056276348271403924	0.3092806489773097	0.260387539273619	0.06962075415501098	0.32617828801232307	0.4088080987959235	0.25888212738636934	0.47023800094147994	0.5462423688745683	0.35735439023981647	0.5856986954177216	0.7972802725665081	0.3507334628340432	0.532781527847136	1.0499615040813461	0.3033741328231008	0.5435332968827432	1.1718856671635332	0.32547819335200334	0.5227328017948966	1.1817077155899594	0.35642697933890244	0.5298968322887303	1.1861165993987886	-0.05363135517443817	0.48763888782317166	0.5672865025409809	-0.060115727764558535	0.5416124547179463	0.8096566204132137	-0.0023818889835434684	0.4316085488965753	1.0067161690539002	0.07499645912866819	0.3411396907515509	1.0680968092439977	0.06232956924775607	0.33669282013561863	1.0964066319167156	0.010831196112638882	0.31710310957537813	1.1041414144611523
80	1.3333333333333333	0.2582818549758616	0.6389412565978713	1.0391219029778487	0.2750221039944445	0.7623600624675984	1.4269007172254253	0.29225380201240203	0.9614587751932889	1.8257398961587898	0.2666882979661699	0.749795879020726	1.8883052791568746	0.332127833779968	0.811618365743399	1.8955192502365308	0.2887747254287922	1.0096724957949663	1.874279801224677	0.042331003639690196	0.6879387499456733	1.0517266349321441	0.07871853868318553	0.7954874444108294	1.4268691249296037	0.09158396189867882	0.9050998852059055	1.825764780598125	0.10401459329722436	0.7442857894334642	1.8854831042309594	0.05200831552462697	0.7734913104701635	1.8837506261619381	0.1198572325814931	0.9618898933290567	1.8734799016591264	0.08008450576378802	0.46094527752105763	0.4878394217040677	0.05634184158999813	0.30930183320595783	0.2603699739988701	0.06488135290334732	0.31476122343141777	0.4074706848198352	0.25904501233815136	0.46990523722482136	0.5430863601236731	0.3572909419884961	0.5854357384441583	0.7972716065110318	0.3559438506599218	0.5457299299756686	1.046869328148104	0.3084071778890408	0.5541408662461017	1.1732117681784386	0.3256541619570377	0.522828760918248	1.1818494173912872	0.3588768212095903	0.5174132123455565	1.1836027214301972	-0.053372021758694634	0.4891970746186036	0.5710514163921105	-0.06037865180951133	0.5424020178167307	0.8130430793462353	0.0010384678905223637	0.42714729595223994	0.9950559008549428	0.0809395254294192	0.3339846220170024	1.0514330946248824	0.068072754444197	0.3192310558528667	1.072258452435455	0.02631972835362717	0.34693574027267127	1.0924980674784692
81	1.35	0.26193448537732744	0.63916422394373	1.0428725569527226	0.27652071559276753	0.7648996311948824	1.431842947455654	0.2922416399969167	0.9611510159433283	1.8256779007211181	0.2667872100261225	0.7498240628634687	1.8882147774918572	0.3262265678277862	0.7972247641911422	1.8905451556823452	0.288937830556126	1.0094133064082944	1.8742130524757625	0.042133470562774736	0.6894566389873737	1.0591325161121645	0.0789630148718995	0.7950776511563491	1.4306714593762877	0.09149900100254031	0.9052288342761989	1.825764104062447	0.10470651786234271	0.7428235775476607	1.8815895511893304	0.05196139446372735	0.7737688089374755	1.8838866649345976	0.11704857112456186	0.9813209045394194	1.8799477063724113	0.07979219658031966	0.4605681572451801	0.48773237926446905	0.05628404745446997	0.3092727743488166	0.2603751992987823	0.06899315709010545	0.3250742107752241	0.40595336133980453	0.25483666388518295	0.47074904965941894	0.5465656357474894	0.3572908808741706	0.5854842309369473	0.7973078790531418	0.3584689218960817	0.5325904743716373	1.0530376714633007	0.3083654985583249	0.5536167792571154	1.1733341343884298	0.3275819972791442	0.5087223404097604	1.1799050510977755	0.35892267501255937	0.5184676194696793	1.183640144528132	-0.05338587281183679	0.48839478753509336	0.56790940859955	-0.060777108576571745	0.5395993908256113	0.8057285899611647	0.004691281335755614	0.4354991761456941	0.9884472858752337	0.08712845518451816	0.3201359301584225	1.045511490995971	0.07346118805369094	0.3033928081913478	1.0589468624169613	0.02599943247809381	0.3451887938265903	1.0923586853353113
82	1.3666666666666667	0.25771169055258114	0.6410156382296419	1.046762798791766	0.27450309721226596	0.7811731629401076	1.4353420683323852	0.29381320131666827	0.9640829393887484	1.8309493799950487	0.2613711405127141	0.7366238620765985	1.883462822798683	0.326525852502364	0.7981932943079242	1.8908070977258082	0.2891673497789241	1.0102113252809102	1.8744830057926511	0.04205194555899966	0.6898108749808862	1.0559050164447017	0.07901951435865137	0.7948026453568675	1.4307767941214862	0.09107156527383053	0.905744803168554	1.8218930797632307	0.10396210561111986	0.7442287616918886	1.8857215807268854	0.051827313195099194	0.7741118678599475	1.8841291969890952	0.11554036569222237	0.9782534874720978	1.8751003827652544	0.07992174069178361	0.46066285092379916	0.4876927709977055	0.0559455116729278	0.3079326706584419	0.2575711458936307	0.06487176144493594	0.31486252947743737	0.4074457286260257	0.2548301952240476	0.47075971833790203	0.5466315941567508	0.35725417604122445	0.5854078354426265	0.7973742954365209	0.3588756378873591	0.5333037689135052	1.0532707469832816	0.3095083373197626	0.5558049933288722	1.1769747813795046	0.3273375247548469	0.509780556527564	1.1835014193938818	0.36459770130913255	0.5312204646504822	1.1817087701300713	-0.05326759135381422	0.48841668928228343	0.5679086950774764	-0.060835373954584555	0.5394869633151769	0.8056261144200689	0.0003108024290427155	0.4204210314362767	0.9804146046824846	0.09099760510522342	0.3191257341179198	1.0412811383550076	0.07721066537641706	0.2998099690573037	1.0510529113163904	0.034513999832684474	0.364603545544013	1.08603020038101
